<?xml version="1.0" standalone="no"?>
<!DOCTYPE svg PUBLIC "-//W3C//DTD SVG 20010904//EN"
 "http://www.w3.org/TR/2001/REC-SVG-20010904/DTD/svg10.dtd">
<svg version="1.0" xmlns="http://www.w3.org/2000/svg"
 width="512.000000pt" height="512.000000pt" viewBox="0 0 512.000000 512.000000"
 preserveAspectRatio="xMidYMid meet">

<g transform="translate(0.000000,512.000000) scale(0.100000,-0.100000)"
fill="#000000" stroke="none">
<path d="M380 5036 c-146 -41 -257 -153 -296 -300 -18 -66 -18 -128 1 -199 21
-83 50 -133 109 -192 124 -124 316 -157 470 -81 l51 26 210 -210 c238 -237
251 -246 306 -191 55 55 46 68 -191 306 l-210 210 25 50 c77 155 45 346 -80
471 -59 59 -109 88 -192 109 -68 18 -141 18 -203 1z m216 -174 c100 -51 157
-167 136 -272 -22 -102 -100 -180 -202 -202 -105 -21 -220 36 -273 136 -28 54
-30 165 -3 216 35 67 95 118 166 141 40 13 133 3 176 -19z"/>
<path d="M2463 5036 c-158 -51 -254 -181 -254 -341 0 -95 28 -169 91 -238 43
-47 138 -107 169 -107 7 0 11 -37 11 -104 l0 -103 -78 -6 c-452 -35 -901 -306
-1164 -702 -141 -213 -237 -481 -255 -717 l-6 -78 -103 0 c-67 0 -104 4 -104
11 0 31 -60 126 -107 169 -69 63 -143 91 -238 91 -141 0 -254 -71 -317 -199
-30 -59 -33 -76 -33 -152 0 -76 3 -93 33 -152 63 -128 176 -199 317 -199 153
0 289 95 334 234 l13 37 102 0 103 0 6 -78 c30 -388 245 -796 556 -1054 254
-211 564 -342 863 -365 l78 -6 0 -103 c0 -67 -4 -104 -11 -104 -31 0 -126 -60
-169 -107 -63 -69 -91 -143 -91 -238 0 -141 71 -254 199 -317 60 -30 76 -33
152 -33 76 0 93 4 152 33 128 63 199 176 199 317 0 95 -28 169 -91 238 -43 47
-138 107 -169 107 -7 0 -11 37 -11 104 l0 103 83 7 c109 8 269 45 392 91 465
172 830 566 968 1045 29 100 57 256 57 317 l0 43 105 0 c67 0 105 -4 105 -11
0 -31 60 -126 107 -169 69 -63 143 -91 238 -91 141 0 254 71 317 199 29 59 33
76 33 152 0 76 -3 92 -33 152 -63 128 -176 199 -317 199 -95 0 -169 -28 -238
-91 -47 -43 -107 -138 -107 -169 0 -7 -37 -11 -104 -11 l-103 0 -7 83 c-30
374 -235 773 -530 1029 -252 218 -581 361 -888 385 l-78 6 0 103 c0 67 4 104
11 104 31 0 126 60 169 107 201 220 54 575 -243 589 -43 3 -89 -2 -114 -10z
m172 -165 c78 -36 115 -95 115 -183 0 -63 -29 -118 -83 -155 -34 -24 -50 -28
-107 -28 -57 0 -73 4 -107 28 -56 39 -83 91 -83 161 0 63 14 98 57 138 60 57
137 72 208 39z m162 -907 c440 -67 851 -377 1047 -788 94 -197 138 -392 138
-616 0 -389 -141 -730 -417 -1005 -275 -276 -616 -417 -1005 -417 -300 0 -577
87 -822 258 -114 80 -280 248 -356 363 -165 246 -244 507 -244 801 0 389 141
730 417 1005 332 333 766 472 1242 399z m-2276 -1236 c21 -12 51 -39 66 -61
24 -34 28 -50 28 -107 0 -57 -4 -73 -28 -107 -37 -54 -92 -83 -155 -83 -88 0
-147 37 -183 115 -41 89 -6 189 86 246 43 27 135 26 186 -3z m4246 11 c64 -24
123 -109 123 -179 0 -70 -59 -155 -123 -179 -16 -6 -51 -11 -79 -11 -63 0
-118 29 -155 83 -24 34 -28 50 -28 107 0 79 26 126 90 165 44 27 121 33 172
14z m-2098 -2153 c71 -49 101 -151 70 -233 -24 -64 -109 -123 -179 -123 -45 0
-108 30 -142 66 -90 97 -52 260 74 314 41 18 135 5 177 -24z"/>
<path d="M2487 3710 c-133 -34 -232 -150 -244 -290 -6 -67 13 -141 52 -198
l24 -35 -57 -37 c-57 -37 -132 -111 -167 -163 -16 -26 -19 -26 -35 -12 -33 29
-118 55 -183 55 -97 0 -152 -23 -223 -94 -71 -71 -94 -126 -94 -222 0 -66 29
-162 55 -184 24 -20 18 -37 -17 -51 -57 -24 -181 -156 -217 -232 -39 -81 -63
-189 -51 -222 21 -55 24 -55 417 -55 200 0 363 -2 363 -5 0 -3 -11 -23 -25
-43 -33 -50 -66 -144 -72 -209 -5 -46 -3 -54 20 -77 l26 -26 501 0 501 0 26
26 c23 23 25 31 20 77 -6 65 -39 159 -72 209 -14 20 -25 40 -25 43 0 3 163 5
363 5 393 0 396 0 417 55 12 33 -12 141 -51 222 -36 76 -160 208 -216 232 -36
14 -42 31 -18 51 26 22 55 118 55 184 0 96 -23 151 -94 222 -71 71 -126 94
-223 94 -65 0 -150 -26 -183 -55 -16 -14 -19 -14 -35 12 -35 52 -110 126 -167
163 l-56 37 28 43 c102 154 35 377 -136 456 -58 27 -151 38 -207 24z m143
-172 c83 -42 115 -157 63 -226 -38 -51 -70 -67 -133 -67 -63 0 -95 16 -133 67
-52 69 -20 184 63 226 24 12 56 22 70 22 14 0 46 -10 70 -22z m25 -474 c110
-28 203 -101 251 -196 l24 -48 -370 0 -370 0 25 50 c47 93 139 165 245 194 72
19 123 19 195 0z m-695 -217 c46 -30 72 -78 72 -131 0 -159 -200 -218 -290
-85 -30 44 -28 129 6 176 45 64 149 83 212 40z m1356 7 c50 -24 77 -68 82
-133 3 -46 0 -62 -20 -90 -31 -47 -78 -73 -132 -73 -93 0 -158 65 -158 158 0
117 120 189 228 138z m-888 -207 c-10 -7 -35 -25 -58 -40 -43 -30 -88 -91
-110 -147 -7 -19 -14 -36 -15 -38 -1 -1 -29 16 -63 38 l-60 40 34 66 c19 36
34 72 34 80 0 11 24 14 128 14 103 -1 124 -3 110 -13z m502 -1 c0 -8 15 -44
34 -80 l34 -66 -60 -40 c-34 -22 -62 -39 -63 -38 -1 2 -8 19 -15 38 -22 56
-67 117 -110 147 -23 15 -48 33 -58 40 -14 10 7 12 111 13 103 0 127 -3 127
-14z m-307 -150 c135 -56 121 -254 -21 -297 -144 -43 -261 137 -165 252 47 56
120 73 186 45z m-578 -141 c33 -16 81 -50 106 -75 44 -44 89 -115 89 -140 0
-7 -119 -10 -365 -10 -306 0 -365 2 -365 14 0 21 67 117 103 149 35 30 90 61
146 83 24 9 68 13 131 11 80 -3 104 -8 155 -32z m1357 3 c32 -15 73 -39 93
-55 38 -30 115 -136 115 -159 0 -12 -61 -14 -365 -14 -248 0 -365 3 -365 10 0
6 7 25 16 43 44 86 122 153 217 188 78 29 213 23 289 -13z m-721 -348 c83 -26
154 -80 207 -159 23 -34 42 -67 42 -72 0 -5 -155 -9 -370 -9 -215 0 -370 4
-370 9 0 24 90 140 135 174 97 73 234 95 356 57z"/>
<path d="M4533 5035 c-79 -22 -131 -51 -188 -109 -125 -125 -158 -315 -81
-470 l26 -51 -210 -210 c-237 -238 -246 -251 -191 -306 55 -55 68 -46 306 191
l210 210 51 -26 c295 -146 642 113 586 437 -42 243 -276 396 -509 334z m213
-173 c46 -24 94 -73 120 -122 27 -51 25 -162 -3 -216 -53 -100 -168 -157 -273
-136 -102 22 -180 100 -202 202 -25 124 53 249 182 291 40 13 133 3 176 -19z"/>
<path d="M1150 1253 c-8 -3 -109 -99 -225 -214 l-210 -209 -51 26 c-155 77
-345 44 -470 -81 -105 -104 -147 -254 -110 -391 43 -162 170 -278 335 -306
272 -47 518 197 473 470 -6 36 -22 88 -36 116 l-26 51 210 210 c236 237 245
251 192 305 -29 29 -50 35 -82 23z m-591 -529 c96 -28 181 -140 181 -239 0
-83 -65 -186 -144 -228 -57 -30 -165 -30 -221 0 -47 25 -96 74 -121 123 -27
51 -25 162 3 215 31 59 85 105 145 126 66 23 90 23 157 3z"/>
<path d="M3889 1231 c-55 -55 -46 -68 191 -306 l210 -210 -26 -51 c-146 -295
113 -641 438 -586 333 57 461 460 224 698 -125 124 -316 156 -471 79 l-50 -25
-210 210 c-238 237 -251 246 -306 191z m820 -507 c61 -18 123 -70 154 -128 28
-54 30 -165 3 -216 -25 -49 -74 -98 -121 -123 -56 -30 -164 -30 -221 0 -79 42
-144 145 -144 228 0 96 85 210 176 239 64 19 89 19 153 0z"/>
</g>
</svg>
