<?xml version="1.0" standalone="no"?>
<!DOCTYPE svg PUBLIC "-//W3C//DTD SVG 20010904//EN"
 "http://www.w3.org/TR/2001/REC-SVG-20010904/DTD/svg10.dtd">
<svg version="1.0" xmlns="http://www.w3.org/2000/svg"
 width="512.000000pt" height="512.000000pt" viewBox="0 0 512.000000 512.000000"
 preserveAspectRatio="xMidYMid meet">

<g transform="translate(0.000000,512.000000) scale(0.100000,-0.100000)"
fill="#000000" stroke="none">
<path d="M2487 4125 c-355 -58 -649 -211 -887 -461 -166 -176 -290 -400 -351
-637 -12 -45 -27 -85 -33 -89 -6 -4 -24 -8 -40 -8 -86 0 -255 -65 -362 -138
-67 -45 -164 -144 -213 -215 -70 -103 -131 -276 -131 -374 0 -43 -25 -83 -52
-83 -25 0 -142 -86 -192 -142 -126 -139 -182 -341 -145 -520 35 -167 164 -336
314 -410 135 -67 51 -63 1195 -63 l1035 0 74 24 c148 49 283 165 350 303 49
101 64 177 59 298 -8 162 -59 278 -173 390 -67 67 -154 121 -232 144 -80 24
-85 27 -98 71 -31 106 -119 212 -220 268 -52 29 -61 38 -73 77 -17 59 -10 160
17 230 61 161 262 275 428 241 77 -15 166 -58 159 -77 -3 -8 -11 -44 -18 -79
-29 -160 58 -345 203 -432 108 -64 100 -64 895 -61 l719 3 55 23 c354 145 375
631 35 793 -33 16 -68 29 -77 29 -12 0 -27 21 -46 63 -39 85 -82 131 -159 169
-54 26 -77 32 -137 32 -39 1 -83 -2 -97 -6 -23 -7 -30 -1 -73 57 -107 146
-298 240 -476 234 l-66 -2 -89 66 c-180 133 -355 214 -570 262 -150 34 -388
43 -528 20z m483 -110 c178 -39 357 -115 506 -216 l77 -51 -73 -39 c-41 -21
-90 -55 -111 -75 l-37 -36 -29 19 c-48 34 -168 92 -249 119 -120 40 -217 55
-359 55 -330 1 -604 -116 -831 -353 -130 -136 -228 -303 -273 -467 -11 -41
-22 -75 -24 -77 -2 -2 -39 5 -82 16 -43 11 -90 20 -104 20 -52 0 -55 10 -31
96 63 233 192 446 376 623 222 214 475 336 799 385 66 10 372 -3 445 -19z
m-127 -330 c121 -18 227 -53 339 -112 l87 -46 -29 -51 c-16 -28 -36 -78 -45
-111 -10 -33 -19 -62 -21 -64 -2 -2 -25 10 -51 27 -227 146 -524 164 -770 47
-228 -107 -382 -292 -443 -529 -11 -44 -20 -101 -20 -128 0 -26 -1 -48 -3 -48
-2 0 -26 21 -53 46 -27 25 -77 64 -111 87 -71 46 -69 36 -26 172 86 270 278
489 538 615 200 97 394 127 608 95z m1032 -20 c121 -32 227 -113 293 -225 44
-73 57 -79 127 -56 85 29 181 11 244 -47 28 -26 71 -113 71 -143 0 -29 17 -41
75 -54 204 -46 316 -251 244 -447 -29 -78 -113 -162 -193 -192 -58 -21 -61
-21 -780 -19 -715 3 -721 3 -768 25 -66 30 -133 96 -165 162 -24 48 -28 68
-28 141 0 71 4 94 26 141 35 75 97 135 174 170 67 30 75 42 75 115 0 63 35
165 80 232 113 169 325 249 525 197z m-995 -336 c72 -20 180 -70 229 -108 l24
-19 -39 -24 c-21 -14 -60 -48 -86 -75 l-46 -50 -29 18 c-52 35 -153 60 -238
60 -212 0 -394 -128 -467 -329 -16 -44 -21 -81 -21 -157 l0 -101 -81 -12 c-45
-7 -93 -15 -107 -18 l-27 -6 -7 80 c-18 209 55 403 209 558 186 186 430 251
686 183z m-1385 -523 c181 -61 321 -179 410 -343 38 -71 54 -82 97 -64 160 65
299 45 412 -59 50 -46 106 -147 106 -190 0 -46 28 -69 101 -85 316 -65 483
-411 342 -704 -41 -87 -128 -180 -209 -223 -111 -60 -76 -58 -1167 -58 l-998
0 -75 25 c-93 31 -145 64 -209 131 -146 152 -177 382 -77 579 36 72 144 175
217 209 120 55 109 42 117 133 20 248 134 444 327 568 140 88 243 116 411 111
92 -3 131 -9 195 -30z"/>
</g>
</svg>
